<svg width="183" height="41" viewBox="0 0 183 41" fill="none" xmlns="http://www.w3.org/2000/svg">
<path d="M5.97621 29.2283C3.42497 28.886 3.2171 28.4189 3.2171 27.8885C3.2171 27.4372 3.48837 26.6801 5.30418 26.6801C7.38091 26.6801 7.8275 27.5253 7.98221 28.161L8.01001 28.2758H10.7057L10.6902 28.112C10.6137 27.3006 10.0093 24.6547 5.43447 24.6547C1.79468 24.6547 0.502762 26.513 0.502762 28.1045C0.502762 30.0415 1.97741 31.0985 5.28549 31.5315C8.11317 31.8737 8.34684 32.462 8.34684 33.0863C8.34684 34.0026 7.51325 34.4677 5.86844 34.4677C4.14628 34.4677 3.0991 33.873 2.75488 32.6997L2.72324 32.5914H0L0.0278021 32.7648C0.411506 35.1615 2.4854 36.5359 5.71763 36.5359C9.11341 36.5359 11.0612 35.2076 11.0612 32.892C11.0612 31.3521 10.4451 29.8423 5.97621 29.2283Z" fill="white"/>
<path d="M20.0764 24.6547C17.9393 24.6547 16.7388 25.5323 16.0733 26.4077C16.0667 25.8788 16.0476 25.3437 16.0107 25.0855L15.9923 24.9568H13.3164L13.3201 25.1104C13.3415 26.0144 13.3415 26.9409 13.3415 27.8457V40.9999H16.0771V35.0446C16.5258 35.5535 17.0867 35.9528 17.7161 36.2114C18.3456 36.47 19.0267 36.581 19.7065 36.5357C22.9512 36.5357 25.3985 33.9032 25.3985 30.4121C25.3985 27.13 23.1103 24.6547 20.0764 24.6547ZM22.5974 30.5197C22.5974 32.2412 21.7323 34.2517 19.2942 34.2517C17.239 34.2517 16.012 32.9049 16.012 30.6492C16.012 28.2908 17.2242 26.9387 19.3378 26.9387C21.5901 26.9387 22.5974 28.7373 22.5974 30.5197V30.5197Z" fill="white"/>
<path d="M37.9333 33.2802V28.6436C37.9333 25.997 36.1793 24.6548 32.7202 24.6548C28.3369 24.6548 27.6303 27.2088 27.5293 28.3067L27.5144 28.4701H30.2345L30.2604 28.3516C30.4314 27.5635 30.7776 26.7233 32.7424 26.7233C34.9576 26.7233 35.2414 27.7843 35.2414 28.7085V29.0976H32.8073C28.8315 29.0976 26.8984 30.325 26.8984 32.8494C26.8984 34.6843 28.2684 36.536 31.3297 36.536C33.2199 36.536 34.556 36.0353 35.3099 35.0464C35.3202 35.4058 35.3568 35.7639 35.4196 36.118L35.4469 36.2339H38.0344L38.0203 36.0712C37.9982 35.8091 37.9333 34.4427 37.9333 33.2802ZM29.5905 32.7195C29.5905 31.5246 30.5654 31.0148 32.8507 31.0148C34.1433 31.0148 34.8765 31.0148 35.2413 31.0287V31.2744C35.2413 33.3504 34.1078 34.4026 31.8728 34.4026C30.4225 34.4028 29.5905 33.7895 29.5905 32.7196V32.7195Z" fill="white"/>
<path d="M49.2679 32.5273C49.0349 33.106 48.6201 33.5948 48.0851 33.921C47.5501 34.2472 46.9234 34.3934 46.298 34.338C44.3038 34.338 43.0156 32.8649 43.0156 30.5846C43.0156 28.3174 44.3038 26.8527 46.298 26.8527C46.9274 26.7978 47.5572 26.9537 48.0868 27.2957C48.6164 27.6376 49.0154 28.1458 49.22 28.7392L49.2568 28.8368H51.9489L51.9216 28.6641C51.6909 27.1749 50.2509 24.6549 46.3194 24.6549C45.5177 24.6239 44.7182 24.7566 43.9704 25.045C43.2226 25.3333 42.5425 25.7711 41.9721 26.3311C41.4018 26.8911 40.9535 27.5615 40.655 28.3006C40.3564 29.0397 40.2141 29.8318 40.2367 30.6278C40.2367 34.2168 42.6162 36.536 46.2981 36.536C49.2089 36.536 51.327 35.0748 51.9621 32.6277L52.0108 32.4405H49.3082L49.2679 32.5273Z" fill="white"/>
<path d="M59.4196 24.6547C55.9021 24.6547 53.4453 27.1109 53.4453 30.6275C53.4453 33.5685 55.306 36.5357 59.463 36.5357C63.3167 36.5357 64.6909 34.2974 65.1677 32.9635L65.2392 32.7635H62.5022L62.4594 32.8408C61.8713 33.8912 60.9746 34.3597 59.55 34.3597C58.6994 34.3939 57.8696 34.0935 57.241 33.5236C56.6124 32.9538 56.2359 32.1607 56.1933 31.3167H65.3284V30.5629C65.3284 27.8376 63.7807 24.6547 59.4196 24.6547ZM59.3982 26.7665C61.8183 26.7665 62.3976 28.3468 62.514 29.3994H56.2448C56.488 27.7232 57.6288 26.7665 59.3982 26.7665V26.7665Z" fill="white"/>
<path d="M70.3027 19.7593H67.5664V36.2337H70.3027V19.7593Z" fill="white"/>
<path d="M74.7799 19.8029C74.5052 19.8028 74.2366 19.8837 74.0081 20.0352C73.7796 20.1867 73.6016 20.402 73.4964 20.654C73.3912 20.906 73.3637 21.1832 73.4173 21.4507C73.4709 21.7182 73.6032 21.9639 73.7975 22.1567C73.9918 22.3496 74.2393 22.4809 74.5088 22.5341C74.7783 22.5873 75.0576 22.56 75.3114 22.4557C75.5653 22.3513 75.7822 22.1745 75.9349 21.9478C76.0875 21.721 76.169 21.4544 76.169 21.1817C76.1685 20.8162 76.022 20.4657 75.7616 20.2073C75.5012 19.9488 75.1482 19.8034 74.7799 19.8029V19.8029Z" fill="white"/>
<path d="M76.1658 24.9568H73.4297V36.2337H76.1658V24.9568Z" fill="white"/>
<path d="M92.676 27.1114V24.9568H89.8733V21.506H87.138V24.9568H82.8342V23.856C82.8342 22.3012 83.2204 21.8275 84.4871 21.8275C84.7821 21.8259 85.0764 21.8535 85.3658 21.9099L85.5507 21.9523V19.7509L85.4388 19.7213C84.9839 19.6207 84.5183 19.5756 84.0525 19.5871C81.4666 19.5871 80.0996 21.0332 80.0996 23.7696V24.9568H78.0781V27.1114H80.0996V36.2337H82.8344V27.1114H87.138V32.9789C87.138 35.3676 88.0819 36.3418 90.3959 36.3418C91.0283 36.3668 91.6607 36.2915 92.2692 36.1187L92.3724 36.0844V34.0662L92.1896 34.1049C91.8556 34.1633 91.5168 34.1911 91.1776 34.1877C90.1775 34.1877 89.8732 33.8248 89.8732 32.6336V27.1117L92.676 27.1114Z" fill="white"/>
<path d="M122.525 19.2091C122.067 22.6541 120.671 24.7092 118.695 24.8477C118.026 24.8535 117.364 24.7047 116.762 24.4132C116.16 24.1216 115.635 23.6952 115.228 23.1676C116.688 22.148 117.918 20.8384 118.841 19.3218C119.763 17.8052 120.359 16.1148 120.588 14.3578C112.685 16.6936 104.511 18.0053 96.2696 18.2602C97.2261 20.2278 98.6758 21.9184 100.48 23.1701C97.3075 26.7844 95.6047 31.4415 95.7033 36.234H99.0343C98.9555 32.5042 100.179 28.8622 102.498 25.9263C102 29.343 101.686 32.7838 101.56 36.2339H107.474C107.474 36.2339 106.389 31.7827 108.155 31.7789C109.921 31.7827 108.836 36.2339 108.836 36.2339H114.75C114.633 32.9746 114.346 29.7235 113.89 26.4936C114.548 27.0198 115.288 27.4376 116.079 27.7309C116.989 28.0682 117.961 28.2098 118.93 28.1463C119.803 28.0813 120.653 27.8385 121.428 27.433C122.202 27.0275 122.884 26.468 123.431 25.7893C124.675 24.3144 125.482 22.2461 125.828 19.6418L122.525 19.2091Z" fill="white"/>
<path d="M108.727 18.1673C120.475 16.2702 129.621 12.4283 129.155 9.58616C128.689 6.744 118.788 5.97787 107.04 7.87496C95.2929 9.77204 86.1472 13.614 86.613 16.4561C87.0789 19.2983 96.9798 20.0644 108.727 18.1673Z" fill="url(#paint0_linear_1556_12369)"/>
<path d="M119.424 7.21592C118.084 4.45668 115.789 2.26829 112.957 1.05079C110.125 -0.166717 106.947 -0.332005 104.002 0.585143C101.058 1.50229 98.5443 3.44061 96.9211 6.04577C95.2979 8.65093 94.6735 11.7489 95.1621 14.7734C95.7817 18.578 121.181 14.6877 120.532 10.7025C120.333 9.49349 119.96 8.31922 119.424 7.21592V7.21592Z" fill="white"/>
<path d="M132 35.7857V19H137.759C140.517 19 142.646 19.7222 144.147 21.1667C145.647 22.5952 146.397 24.6667 146.397 27.381C146.397 30.0952 145.647 32.1746 144.147 33.619C142.646 35.0635 140.517 35.7857 137.759 35.7857H132ZM133.984 34.119H137.614C142.066 34.119 144.292 31.873 144.292 27.381C144.292 22.9048 142.066 20.6667 137.614 20.6667H133.984V34.119Z" fill="white"/>
<path d="M154.58 36C153.435 36 152.443 35.754 151.604 35.2619C150.765 34.7698 150.112 34.0794 149.644 33.1905C149.192 32.2857 148.966 31.2222 148.966 30C148.966 28.7778 149.192 27.7222 149.644 26.8333C150.112 25.9286 150.765 25.2302 151.604 24.7381C152.443 24.246 153.435 24 154.58 24C155.709 24 156.693 24.246 157.532 24.7381C158.387 25.2302 159.04 25.9286 159.492 26.8333C159.96 27.7222 160.193 28.7778 160.193 30C160.193 31.2222 159.96 32.2857 159.492 33.1905C159.04 34.0794 158.387 34.7698 157.532 35.2619C156.693 35.754 155.709 36 154.58 36ZM154.58 34.4524C155.677 34.4524 156.556 34.0714 157.217 33.3095C157.879 32.5317 158.209 31.4286 158.209 30C158.209 28.5556 157.879 27.4524 157.217 26.6905C156.556 25.9286 155.677 25.5476 154.58 25.5476C153.467 25.5476 152.58 25.9286 151.918 26.6905C151.273 27.4524 150.95 28.5556 150.95 30C150.95 31.4286 151.273 32.5317 151.918 33.3095C152.58 34.0714 153.467 34.4524 154.58 34.4524Z" fill="white"/>
<path d="M168.122 36C166.944 36 165.928 35.754 165.073 35.2619C164.218 34.754 163.557 34.0476 163.089 33.1429C162.637 32.2222 162.411 31.1508 162.411 29.9286C162.411 28.0873 162.92 26.6429 163.936 25.5952C164.952 24.5317 166.347 24 168.122 24C168.848 24 169.566 24.127 170.275 24.381C170.985 24.6349 171.574 24.9921 172.042 25.4524L171.364 26.8571C170.896 26.4127 170.38 26.0873 169.816 25.881C169.267 25.6746 168.743 25.5714 168.243 25.5714C167.017 25.5714 166.073 25.9524 165.412 26.7143C164.75 27.4603 164.42 28.5397 164.42 29.9524C164.42 31.3333 164.75 32.4286 165.412 33.2381C166.073 34.0317 167.017 34.4286 168.243 34.4286C168.743 34.4286 169.267 34.3254 169.816 34.119C170.38 33.9127 170.896 33.5794 171.364 33.119L172.042 34.5238C171.574 34.9841 170.977 35.3492 170.251 35.619C169.541 35.873 168.832 36 168.122 36Z" fill="white"/>
<path d="M178.306 36C177.386 36 176.515 35.873 175.693 35.619C174.87 35.3651 174.192 35.0079 173.66 34.5476L174.289 33.1905C174.87 33.6508 175.507 33.9921 176.201 34.2143C176.911 34.4206 177.628 34.5238 178.354 34.5238C179.274 34.5238 179.967 34.3571 180.435 34.0238C180.903 33.6905 181.137 33.2381 181.137 32.6667C181.137 32.2222 180.984 31.873 180.677 31.619C180.371 31.3492 179.887 31.1429 179.225 31L177.023 30.5238C175.023 30.0952 174.023 29.0794 174.023 27.4762C174.023 26.4286 174.443 25.5873 175.281 24.9524C176.136 24.3175 177.249 24 178.62 24C179.427 24 180.193 24.127 180.919 24.381C181.661 24.619 182.274 24.9762 182.758 25.4524L182.105 26.8095C181.637 26.381 181.088 26.0556 180.459 25.8333C179.846 25.5952 179.233 25.4762 178.62 25.4762C177.717 25.4762 177.032 25.6508 176.564 26C176.096 26.3492 175.862 26.8095 175.862 27.381C175.862 28.2698 176.459 28.8413 177.653 29.0952L179.854 29.5476C180.887 29.7698 181.669 30.127 182.202 30.619C182.734 31.0952 183 31.746 183 32.5714C183 33.6349 182.573 34.4762 181.718 35.0952C180.863 35.6984 179.725 36 178.306 36Z" fill="white"/>
<defs>
<linearGradient id="paint0_linear_1556_12369" x1="86.5959" y1="13.0212" x2="129.172" y2="13.0212" gradientUnits="userSpaceOnUse">
<stop offset="0.0817" stop-color="#82FFE8"/>
<stop offset="0.9512" stop-color="#7C47FC"/>
</linearGradient>
</defs>
</svg>
