<svg width="79" height="66" viewBox="0 0 79 66" fill="none" xmlns="http://www.w3.org/2000/svg">
<path d="M65.6492 34.9894C64.8312 41.2645 62.3379 45.0078 58.8085 45.26C57.6125 45.2706 56.4304 44.9996 55.3556 44.4685C54.2808 43.9375 53.3426 43.1608 52.6151 42.1998C55.2224 40.3426 57.4199 37.9571 59.0682 35.1946C60.7164 32.4322 61.7793 29.3531 62.1895 26.1527C48.0737 30.4073 33.4736 32.7966 18.7524 33.261C20.4609 36.8448 23.0502 39.9243 26.2722 42.2043C20.6062 48.7877 17.5649 57.2707 17.7408 66H23.6906C23.5498 59.2062 25.7359 52.5724 29.8778 47.2247C28.9873 53.4482 28.4279 59.7157 28.2018 65.9999H38.7652C38.7652 65.9999 36.8277 57.892 39.9819 57.8851C43.1359 57.892 41.1984 65.9999 41.1984 65.9999H51.762C51.5527 60.0631 51.04 54.1412 50.2259 48.258C51.4015 49.2166 52.7217 49.9775 54.136 50.5117C55.761 51.1262 57.4964 51.3841 59.2273 51.2684C60.7869 51.15 62.3057 50.7078 63.689 49.9691C65.0723 49.2305 66.2904 48.2114 67.2675 46.9752C69.4899 44.2886 70.9298 40.5211 71.5485 35.7775L65.6492 34.9894Z" fill="white"/>
<path d="M41.0066 33.0915C61.9898 29.636 78.3255 22.6379 77.4934 17.461C76.6613 12.284 58.9766 10.8885 37.9934 14.344C17.0102 17.7996 0.674532 24.7976 1.50661 29.9746C2.33869 35.1515 20.0235 36.547 41.0066 33.0915Z" fill="url(#paint0_linear_360_247)"/>
<path d="M60.1119 13.1438C57.7183 8.11782 53.6178 4.13168 48.5599 1.914C43.502 -0.303674 37.8245 -0.604745 32.5653 1.06583C27.3061 2.73641 22.8166 6.26705 19.9173 11.0123C17.0181 15.7576 15.9028 21.4006 16.7754 26.9096C17.8822 33.8397 63.249 26.7536 62.0897 19.4945C61.7355 17.2923 61.0694 15.1534 60.1119 13.1438V13.1438Z" fill="white"/>
<defs>
<linearGradient id="paint0_linear_360_247" x1="1.47598" y1="23.7179" x2="77.5237" y2="23.7179" gradientUnits="userSpaceOnUse">
<stop offset="0.0817" stop-color="#82FFE8"/>
<stop offset="0.9512" stop-color="#7C47FC"/>
</linearGradient>
</defs>
</svg>
