<svg width="234" height="75" viewBox="0 0 234 75" fill="none" xmlns="http://www.w3.org/2000/svg">
<path d="M10.7468 52.9524C6.159 52.3324 5.78519 51.486 5.78519 50.5252C5.78519 49.7076 6.273 48.336 9.5383 48.336C13.2728 48.336 14.0759 49.8672 14.3541 51.0189L14.4041 51.2269H19.2517L19.2238 50.9301C19.0862 49.4601 17.9994 44.6665 9.7726 44.6665C3.2273 44.6665 0.904099 48.0332 0.904099 50.9165C0.904099 54.4257 3.5559 56.3407 9.5047 57.1251C14.5896 57.7451 15.0098 58.8109 15.0098 59.9419C15.0098 61.6019 13.5108 62.4445 10.553 62.4445C7.45609 62.4445 5.57299 61.3672 4.95399 59.2415L4.89709 59.0454H0L0.0499954 59.3595C0.739995 63.7015 4.4694 66.1915 10.2818 66.1915C16.3883 66.1915 19.891 63.785 19.891 59.59C19.891 56.8001 18.783 54.0648 10.7468 52.9524Z" fill="white"/>
<path d="M36.1035 44.6665C32.2603 44.6665 30.1016 46.2565 28.9049 47.8424C28.8929 46.8843 28.8586 45.9149 28.7923 45.447L28.7591 45.2138H23.9472L23.9539 45.4921C23.9924 47.13 23.9924 48.8084 23.9924 50.4477V74.2789H28.9116V63.4898C29.7185 64.4117 30.7271 65.135 31.8591 65.6035C32.991 66.0721 34.2158 66.2731 35.4382 66.1911C41.273 66.1911 45.674 61.4218 45.674 55.0972C45.674 49.151 41.5592 44.6665 36.1035 44.6665ZM40.6369 55.292C40.6369 58.4109 39.0811 62.0532 34.6969 62.0532C31.0011 62.0532 28.7945 59.6132 28.7945 55.5266C28.7945 51.2541 30.9745 48.8045 34.7753 48.8045C38.8254 48.8045 40.6369 52.063 40.6369 55.292V55.292Z" fill="white"/>
<path d="M68.2145 60.2929V51.8929C68.2145 47.0982 65.0604 44.6665 58.84 44.6665C50.9577 44.6665 49.6869 49.2935 49.5053 51.2826L49.4786 51.5787H54.37L54.4166 51.364C54.7241 49.9361 55.3466 48.414 58.8798 48.414C62.8633 48.414 63.3737 50.3361 63.3737 52.0105V52.7155H58.9965C51.8471 52.7155 48.3709 54.9392 48.3709 59.5126C48.3709 62.8368 50.8344 66.1915 56.3394 66.1915C59.7386 66.1915 62.1412 65.2844 63.4969 63.4928C63.5154 64.1439 63.5813 64.7927 63.6942 65.4342L63.7433 65.6442H68.3962L68.3709 65.3493C68.3311 64.8745 68.2145 62.399 68.2145 60.2929ZM53.2119 59.2771C53.2119 57.1124 54.965 56.1888 59.0746 56.1888C61.399 56.1888 62.7175 56.1888 63.3736 56.2139V56.6592C63.3736 60.4202 61.3353 62.3264 57.3161 62.3264C54.7081 62.3267 53.2119 61.2156 53.2119 59.2774V59.2771Z" fill="white"/>
<path d="M88.5976 58.929C88.1787 59.9775 87.4328 60.8629 86.4707 61.4539C85.5086 62.0448 84.3816 62.3098 83.257 62.2095C79.6709 62.2095 77.3544 59.5406 77.3544 55.4095C77.3544 51.3021 79.6709 48.6484 83.257 48.6484C84.3888 48.549 85.5213 48.8315 86.4737 49.451C87.4262 50.0705 88.1436 50.9912 88.5115 52.0661L88.5777 52.243H93.4187L93.3697 51.9302C92.9549 49.2321 90.3653 44.6668 83.2954 44.6668C81.8539 44.6106 80.4162 44.8511 79.0714 45.3735C77.7267 45.8958 76.5036 46.6889 75.478 47.7035C74.4524 48.7181 73.6462 49.9325 73.1094 51.2716C72.5725 52.6106 72.3165 54.0457 72.3572 55.4877C72.3572 61.9899 76.6361 66.1914 83.2572 66.1914C88.4916 66.1914 92.3004 63.5443 93.4426 59.1109L93.5301 58.7717H88.6701L88.5976 58.929Z" fill="white"/>
<path d="M106.851 44.6665C100.526 44.6665 96.1076 49.1165 96.1076 55.4874C96.1076 60.8155 99.4536 66.1911 106.929 66.1911C113.859 66.1911 116.33 62.1361 117.188 59.7195L117.316 59.3571H112.394L112.317 59.4971C111.26 61.4001 109.647 62.2489 107.085 62.2489C105.556 62.3109 104.064 61.7666 102.933 60.7342C101.803 59.7018 101.126 58.265 101.049 56.736H117.477V55.3704C117.477 50.433 114.693 44.6665 106.851 44.6665ZM106.813 48.4924C111.165 48.4924 112.206 51.3555 112.415 53.2624H101.142C101.579 50.2257 103.631 48.4924 106.813 48.4924V48.4924Z" fill="white"/>
<path d="M126.422 35.7976H121.501V65.6439H126.422V35.7976Z" fill="white"/>
<path d="M134.471 35.8763C133.977 35.8763 133.494 36.0228 133.083 36.2973C132.672 36.5717 132.352 36.9619 132.163 37.4184C131.974 37.8748 131.924 38.3771 132.021 38.8617C132.117 39.3463 132.355 39.7914 132.704 40.1408C133.054 40.4902 133.499 40.7281 133.983 40.8245C134.468 40.9209 134.97 40.8715 135.427 40.6824C135.883 40.4933 136.273 40.1731 136.548 39.7623C136.822 39.3514 136.969 38.8684 136.969 38.3743C136.968 37.7121 136.704 37.0773 136.236 36.609C135.768 36.1407 135.133 35.8772 134.471 35.8763V35.8763Z" fill="white"/>
<path d="M136.969 45.2137H132.048V65.6438H136.969V45.2137Z" fill="white"/>
<path d="M166.659 49.1171V45.2137H161.619V38.962H156.7V45.2137H148.961V43.2193C148.961 40.4026 149.655 39.5444 151.933 39.5444C152.463 39.5414 152.993 39.5914 153.513 39.6936L153.846 39.7704V35.7822L153.644 35.7286C152.826 35.5464 151.989 35.4648 151.151 35.4854C146.501 35.4854 144.043 38.1054 144.043 43.0629V45.2137H140.408V49.1171H144.043V65.6438H148.961V49.1171H156.7V59.7471C156.7 64.0746 158.397 65.8397 162.559 65.8397C163.696 65.885 164.833 65.7486 165.927 65.4355L166.113 65.3733V61.717L165.784 61.787C165.183 61.893 164.574 61.9432 163.964 61.937C162.166 61.937 161.619 61.2796 161.619 59.1216V49.1176L166.659 49.1171Z" fill="white"/>
<path d="M220.333 34.8008C219.509 41.042 216.999 44.7652 213.446 45.016C212.242 45.0265 211.052 44.7571 209.969 44.2288C208.887 43.7006 207.943 42.9281 207.21 41.9723C209.835 40.1251 212.048 37.7525 213.707 35.0049C215.367 32.2573 216.437 29.1948 216.85 26.0117C202.638 30.2434 187.939 32.6198 173.118 33.0817C174.838 36.6462 177.445 39.7091 180.689 41.9768C174.985 48.5247 171.923 56.962 172.1 65.6443H178.09C177.948 58.8871 180.149 52.2891 184.319 46.9701C183.423 53.1601 182.859 59.3938 182.632 65.6442H193.267C193.267 65.6442 191.316 57.58 194.492 57.5731C197.667 57.58 195.716 65.6442 195.716 65.6442H206.352C206.141 59.7394 205.625 53.8494 204.805 47.9979C205.989 48.9513 207.318 49.7081 208.742 50.2394C210.378 50.8506 212.125 51.1072 213.867 50.992C215.438 50.8743 216.967 50.4344 218.359 49.6998C219.752 48.9651 220.978 47.9515 221.962 46.722C224.2 44.0498 225.649 40.3027 226.272 35.5846L220.333 34.8008Z" fill="white"/>
<path d="M195.523 32.9132C216.649 29.4763 233.095 22.516 232.257 17.3669C231.419 12.2179 213.615 10.8299 192.49 14.2668C171.364 17.7037 154.918 24.664 155.756 29.8131C156.594 34.9622 174.398 36.3501 195.523 32.9132Z" fill="url(#paint0_linear_360_197)"/>
<path d="M214.758 13.0729C212.348 8.07407 208.22 4.10941 203.128 1.90369C198.036 -0.302037 192.32 -0.601486 187.025 1.06009C181.73 2.72167 177.21 6.23328 174.291 10.953C171.372 15.6727 170.249 21.2852 171.128 26.7646C172.242 33.6573 217.916 26.6094 216.749 19.3894C216.393 17.1992 215.722 15.0717 214.758 13.0729V13.0729Z" fill="white"/>
<defs>
<linearGradient id="paint0_linear_360_197" x1="155.725" y1="23.5902" x2="232.288" y2="23.5902" gradientUnits="userSpaceOnUse">
<stop offset="0.0817" stop-color="#82FFE8"/>
<stop offset="0.9512" stop-color="#7C47FC"/>
</linearGradient>
</defs>
</svg>
