<svg width="232" height="37" viewBox="0 0 232 37" fill="none" xmlns="http://www.w3.org/2000/svg">
<g clip-path="url(#clip0_1807_12360)">
<path d="M5.28074 25.8269C3.0264 25.5245 2.84272 25.1117 2.84272 24.6431C2.84272 24.2443 3.08242 23.5753 4.68691 23.5753C6.52197 23.5753 6.91659 24.3222 7.05329 24.8839L7.07786 24.9853H9.45986L9.44615 24.8406C9.37854 24.1236 8.84451 21.7856 4.80204 21.7856C1.58582 21.7856 0.444254 23.4276 0.444254 24.8339C0.444254 26.5455 1.74729 27.4795 4.6704 27.8621C7.16901 28.1645 7.37549 28.6843 7.37549 29.236C7.37549 30.0456 6.63891 30.4566 5.18551 30.4566C3.66376 30.4566 2.73845 29.9312 2.43429 28.8944L2.40633 28.7987H0L0.0245667 28.9519C0.363618 31.0697 2.19617 32.2842 5.05225 32.2842C8.05285 32.2842 9.774 31.1104 9.774 29.0643C9.774 27.7036 9.22956 26.3695 5.28074 25.8269Z" fill="white"/>
<path d="M17.7405 21.7856C15.852 21.7856 14.7913 22.5611 14.2032 23.3346C14.1973 22.8673 14.1805 22.3945 14.1479 22.1663L14.1316 22.0525H11.7671L11.7704 22.1882C11.7893 22.9871 11.7893 23.8057 11.7893 24.6053V36.2287H14.2065V30.9664C14.603 31.4161 15.0986 31.7689 15.6549 31.9974C16.2111 32.2259 16.8129 32.324 17.4136 32.284C20.2807 32.284 22.4432 29.9578 22.4432 26.873C22.4432 23.9728 20.4213 21.7856 17.7405 21.7856ZM19.9681 26.968C19.9681 28.4893 19.2036 30.2658 17.0493 30.2658C15.2333 30.2658 14.149 29.0757 14.149 27.0825C14.149 24.9986 15.2202 23.8038 17.0878 23.8038C19.078 23.8038 19.9681 25.3931 19.9681 26.968V26.968Z" fill="white"/>
<path d="M33.5191 29.4072V25.3102C33.5191 22.9717 31.9693 21.7856 28.9127 21.7856C25.0395 21.7856 24.4151 24.0424 24.3258 25.0126L24.3127 25.157H26.7162L26.7391 25.0523C26.8902 24.3558 27.1961 23.6134 28.9323 23.6134C30.8897 23.6134 31.1405 24.5509 31.1405 25.3676V25.7114H28.9896C25.4765 25.7114 23.7684 26.796 23.7684 29.0266C23.7684 30.648 24.9789 32.2842 27.684 32.2842C29.3543 32.2842 30.5348 31.8418 31.201 30.9679C31.2101 31.2855 31.2425 31.602 31.2979 31.9148L31.3221 32.0173H33.6084L33.596 31.8734C33.5764 31.6419 33.5191 30.4345 33.5191 29.4072ZM26.1472 28.9118C26.1472 27.856 27.0086 27.4055 29.028 27.4055C30.1701 27.4055 30.818 27.4055 31.1404 27.4177V27.6349C31.1404 29.4693 30.1388 30.3991 28.1639 30.3991C26.8824 30.3992 26.1472 29.8573 26.1472 28.9119V28.9118Z" fill="white"/>
<path d="M43.5349 28.742C43.3291 29.2534 42.9626 29.6852 42.4898 29.9735C42.0171 30.2617 41.4633 30.391 40.9107 30.342C39.1486 30.342 38.0103 29.0403 38.0103 27.0254C38.0103 25.0221 39.1486 23.7277 40.9107 23.7277C41.4668 23.6792 42.0233 23.8171 42.4913 24.1192C42.9593 24.4213 43.3118 24.8704 43.4926 25.3947L43.5252 25.481H45.9039L45.8798 25.3284C45.676 24.0124 44.4035 21.7858 40.9295 21.7858C40.2212 21.7583 39.5147 21.8756 38.854 22.1304C38.1932 22.3852 37.5922 22.772 37.0882 23.2669C36.5843 23.7617 36.1881 24.3541 35.9243 25.0072C35.6605 25.6603 35.5348 26.3602 35.5548 27.0635C35.5548 30.2349 37.6573 32.2842 40.9108 32.2842C43.4829 32.2842 45.3544 30.9931 45.9157 28.8307L45.9587 28.6653H43.5706L43.5349 28.742Z" fill="white"/>
<path d="M52.5043 21.7856C49.3961 21.7856 47.2252 23.956 47.2252 27.0634C47.2252 29.6621 48.8693 32.284 52.5426 32.284C55.9478 32.284 57.1621 30.3062 57.5834 29.1275L57.6466 28.9508H55.2281L55.1903 29.019C54.6706 29.9472 53.8783 30.3612 52.6194 30.3612C51.8678 30.3915 51.1346 30.126 50.5791 29.6224C50.0237 29.1189 49.691 28.4181 49.6534 27.6723H57.7254V27.0063C57.7254 24.5981 56.3578 21.7856 52.5043 21.7856ZM52.4853 23.6516C54.6238 23.6516 55.1356 25.0481 55.2385 25.9781H49.6989C49.9138 24.497 50.9218 23.6516 52.4853 23.6516V23.6516Z" fill="white"/>
<path d="M62.1208 17.4599H59.7029V32.0171H62.1208V17.4599Z" fill="white"/>
<path d="M66.0761 17.4983C65.8333 17.4983 65.596 17.5697 65.3941 17.7036C65.1922 17.8375 65.0348 18.0278 64.9419 18.2504C64.849 18.473 64.8247 18.718 64.872 18.9544C64.9194 19.1907 65.0363 19.4078 65.208 19.5783C65.3796 19.7487 65.5984 19.8647 65.8365 19.9117C66.0746 19.9587 66.3214 19.9346 66.5457 19.8424C66.77 19.7502 66.9618 19.594 67.0966 19.3936C67.2315 19.1932 67.3035 18.9577 67.3035 18.7167C67.3031 18.3937 67.1736 18.084 66.9435 17.8556C66.7134 17.6272 66.4015 17.4987 66.0761 17.4983V17.4983Z" fill="white"/>
<path d="M67.3035 22.0525H64.8858V32.0171H67.3035V22.0525Z" fill="white"/>
<path d="M81.8925 23.9563V22.0525H79.416V19.0033H76.999V22.0525H73.1961V21.0798C73.1961 19.7059 73.5373 19.2874 74.6566 19.2874C74.9172 19.2859 75.1773 19.3103 75.433 19.3601L75.5964 19.3976V17.4524L75.4975 17.4263C75.0956 17.3374 74.6842 17.2975 74.2725 17.3076C71.9876 17.3076 70.7796 18.5855 70.7796 21.0035V22.0525H68.9934V23.9563H70.7796V32.0171H73.1962V23.9563H76.999V29.141C76.999 31.2517 77.833 32.1126 79.8778 32.1126C80.4366 32.1347 80.9954 32.0682 81.5331 31.9155L81.6242 31.8851V30.1018L81.4628 30.136C81.1676 30.1876 80.8682 30.2121 80.5684 30.2091C79.6848 30.2091 79.4159 29.8885 79.4159 28.8359V23.9566L81.8925 23.9563Z" fill="white"/>
<path d="M108.267 16.9737C107.862 20.0178 106.629 21.8338 104.883 21.9561C104.291 21.9612 103.706 21.8298 103.174 21.5722C102.643 21.3145 102.179 20.9377 101.819 20.4716C103.109 19.5706 104.196 18.4134 105.011 17.0733C105.826 15.7332 106.352 14.2395 106.555 12.6869C99.572 14.7509 92.3493 15.9099 85.0666 16.1353C85.9118 17.8738 87.1928 19.3677 88.7867 20.4737C85.9837 23.6674 84.4791 27.7826 84.5662 32.0173H87.5096C87.4399 28.7216 88.5214 25.5034 90.5704 22.9092C90.1299 25.9283 89.8531 28.9687 89.7413 32.0173H94.9671C94.9671 32.0173 94.0086 28.084 95.569 28.0807C97.1293 28.084 96.1708 32.0173 96.1708 32.0173H101.397C101.293 29.1372 101.04 26.2645 100.637 23.4105C101.218 23.8755 101.871 24.2446 102.571 24.5037C103.375 24.8019 104.234 24.927 105.09 24.8708C105.861 24.8134 106.613 24.5989 107.297 24.2405C107.981 23.8822 108.584 23.3878 109.067 22.7882C110.167 21.4848 110.879 19.6572 111.185 17.356L108.267 16.9737Z" fill="white"/>
<path d="M96.0759 16.0531C106.456 14.3768 114.538 10.9819 114.126 8.47053C113.715 5.95913 104.966 5.28215 94.5853 6.95847C84.2048 8.63479 76.1234 12.0296 76.535 14.541C76.9467 17.0524 85.6954 17.7294 96.0759 16.0531Z" fill="url(#paint0_linear_1807_12360)"/>
<path d="M105.527 6.37618C104.343 3.93804 102.315 2.00432 99.8126 0.928503C97.3104 -0.147316 94.5017 -0.293368 91.9 0.517048C89.2982 1.32746 87.0772 3.04021 85.6429 5.3422C84.2087 7.64419 83.6569 10.3816 84.0886 13.0542C84.6361 16.416 107.079 12.9785 106.506 9.45699C106.331 8.3887 106.001 7.35108 105.527 6.37618V6.37618Z" fill="white"/>
<path d="M122.34 32.18C121.233 32.18 120.22 32.04 119.3 31.76C118.38 31.4667 117.6 31.06 116.96 30.54L117.62 28.9C118.287 29.4067 119 29.7867 119.76 30.04C120.52 30.2933 121.38 30.42 122.34 30.42C123.473 30.42 124.307 30.22 124.84 29.82C125.387 29.4067 125.66 28.8733 125.66 28.22C125.66 27.6867 125.467 27.2667 125.08 26.96C124.693 26.64 124.047 26.3867 123.14 26.2L121 25.76C119.733 25.4933 118.787 25.0533 118.16 24.44C117.547 23.8267 117.24 23 117.24 21.96C117.24 21.12 117.46 20.38 117.9 19.74C118.353 19.1 118.98 18.6067 119.78 18.26C120.58 17.9 121.5 17.72 122.54 17.72C123.5 17.72 124.387 17.8667 125.2 18.16C126.027 18.44 126.727 18.8533 127.3 19.4L126.62 20.98C125.487 19.98 124.12 19.48 122.52 19.48C121.533 19.48 120.747 19.7 120.16 20.14C119.587 20.58 119.3 21.1667 119.3 21.9C119.3 22.46 119.48 22.9067 119.84 23.24C120.2 23.5733 120.8 23.8267 121.64 24L123.76 24.44C125.093 24.72 126.087 25.1533 126.74 25.74C127.393 26.3133 127.72 27.0933 127.72 28.08C127.72 28.9067 127.5 29.6267 127.06 30.24C126.62 30.8533 126 31.3333 125.2 31.68C124.4 32.0133 123.447 32.18 122.34 32.18Z" fill="white"/>
<path d="M135.041 32.18C133.441 32.18 132.181 31.7333 131.261 30.84C130.341 29.9333 129.881 28.7 129.881 27.14C129.881 26.14 130.081 25.26 130.481 24.5C130.895 23.7267 131.461 23.1267 132.181 22.7C132.901 22.2733 133.728 22.06 134.661 22.06C136.008 22.06 137.068 22.4933 137.841 23.36C138.615 24.2133 139.001 25.3933 139.001 26.9V27.58H131.841C131.988 29.6067 133.061 30.62 135.061 30.62C135.621 30.62 136.168 30.5333 136.701 30.36C137.248 30.1867 137.761 29.9 138.241 29.5L138.841 30.9C138.401 31.3 137.835 31.6133 137.141 31.84C136.448 32.0667 135.748 32.18 135.041 32.18ZM134.741 23.48C133.901 23.48 133.235 23.74 132.741 24.26C132.248 24.78 131.948 25.4733 131.841 26.34H137.301C137.261 25.4333 137.021 24.7333 136.581 24.24C136.141 23.7333 135.528 23.48 134.741 23.48Z" fill="white"/>
<path d="M144.984 32.18C143.917 32.18 143.117 31.88 142.584 31.28C142.064 30.68 141.804 29.8 141.804 28.64V17.9H143.824V28.52C143.824 29.84 144.364 30.5 145.444 30.5C145.604 30.5 145.75 30.4933 145.884 30.48C146.03 30.4667 146.177 30.44 146.324 30.4L146.284 32.02C145.83 32.1267 145.397 32.18 144.984 32.18Z" fill="white"/>
<path d="M148.921 32V23.8H147.021V22.24H148.921V22.06C148.921 20.7133 149.261 19.7 149.941 19.02C150.634 18.34 151.694 17.96 153.121 17.88L154.001 17.82L154.141 19.34L153.221 19.4C152.408 19.4533 151.821 19.6733 151.461 20.06C151.114 20.4467 150.941 21.02 150.941 21.78V22.24H153.681V23.8H150.941V32H148.921Z" fill="white"/>
<path d="M155.679 27.48V25.84H161.439V27.48H155.679Z" fill="white"/>
<path d="M165.093 32V17.9H167.173V23.98H175.073V17.9H177.133V32H175.073V25.72H167.173V32H165.093Z" fill="white"/>
<path d="M185.045 32.18C184.058 32.18 183.205 31.9733 182.485 31.56C181.765 31.1467 181.205 30.5667 180.805 29.82C180.418 29.06 180.225 28.16 180.225 27.12C180.225 26.08 180.418 25.1867 180.805 24.44C181.205 23.68 181.765 23.0933 182.485 22.68C183.205 22.2667 184.058 22.06 185.045 22.06C186.005 22.06 186.845 22.2667 187.565 22.68C188.285 23.0933 188.845 23.68 189.245 24.44C189.645 25.1867 189.845 26.08 189.845 27.12C189.845 28.16 189.645 29.06 189.245 29.82C188.845 30.5667 188.285 31.1467 187.565 31.56C186.845 31.9733 186.005 32.18 185.045 32.18ZM185.045 30.62C185.872 30.62 186.538 30.32 187.045 29.72C187.552 29.12 187.805 28.2533 187.805 27.12C187.805 25.9867 187.552 25.1267 187.045 24.54C186.538 23.94 185.872 23.64 185.045 23.64C184.205 23.64 183.532 23.94 183.025 24.54C182.518 25.1267 182.265 25.9867 182.265 27.12C182.265 28.2533 182.518 29.12 183.025 29.72C183.532 30.32 184.205 30.62 185.045 30.62Z" fill="white"/>
<path d="M196.134 32.18C195.334 32.18 194.587 32.08 193.894 31.88C193.2 31.6667 192.62 31.3733 192.154 31L192.734 29.64C193.227 29.9867 193.767 30.2533 194.354 30.44C194.954 30.6267 195.554 30.72 196.154 30.72C196.86 30.72 197.394 30.5933 197.754 30.34C198.114 30.0867 198.294 29.7467 198.294 29.32C198.294 28.9733 198.174 28.7067 197.934 28.52C197.694 28.32 197.334 28.1667 196.854 28.06L194.954 27.68C193.274 27.3333 192.434 26.4667 192.434 25.08C192.434 24.16 192.8 23.4267 193.534 22.88C194.267 22.3333 195.227 22.06 196.414 22.06C197.094 22.06 197.74 22.16 198.354 22.36C198.98 22.56 199.5 22.86 199.914 23.26L199.334 24.62C198.934 24.2733 198.474 24.0067 197.954 23.82C197.434 23.6333 196.92 23.54 196.414 23.54C195.72 23.54 195.194 23.6733 194.834 23.94C194.474 24.1933 194.294 24.54 194.294 24.98C194.294 25.6467 194.734 26.0733 195.614 26.26L197.514 26.64C198.38 26.8133 199.034 27.1067 199.474 27.52C199.927 27.9333 200.154 28.4933 200.154 29.2C200.154 30.1333 199.787 30.8667 199.054 31.4C198.32 31.92 197.347 32.18 196.134 32.18Z" fill="white"/>
<path d="M207.064 32.18C205.837 32.18 204.924 31.8667 204.324 31.24C203.724 30.6133 203.424 29.7067 203.424 28.52V23.8H201.524V22.24H203.424V19.3H205.444V22.24H208.464V23.8H205.444V28.36C205.444 29.0667 205.59 29.6 205.884 29.96C206.19 30.32 206.684 30.5 207.364 30.5C207.577 30.5 207.784 30.48 207.984 30.44C208.184 30.3867 208.384 30.3267 208.584 30.26L208.904 31.78C208.704 31.9 208.424 31.9933 208.064 32.06C207.717 32.14 207.384 32.18 207.064 32.18Z" fill="white"/>
<path d="M215.291 32.18C213.691 32.18 212.431 31.7333 211.511 30.84C210.591 29.9333 210.131 28.7 210.131 27.14C210.131 26.14 210.331 25.26 210.731 24.5C211.144 23.7267 211.711 23.1267 212.431 22.7C213.151 22.2733 213.977 22.06 214.911 22.06C216.257 22.06 217.317 22.4933 218.091 23.36C218.864 24.2133 219.251 25.3933 219.251 26.9V27.58H212.091C212.237 29.6067 213.311 30.62 215.311 30.62C215.871 30.62 216.417 30.5333 216.951 30.36C217.497 30.1867 218.011 29.9 218.491 29.5L219.091 30.9C218.651 31.3 218.084 31.6133 217.391 31.84C216.697 32.0667 215.997 32.18 215.291 32.18ZM214.991 23.48C214.151 23.48 213.484 23.74 212.991 24.26C212.497 24.78 212.197 25.4733 212.091 26.34H217.551C217.511 25.4333 217.271 24.7333 216.831 24.24C216.391 23.7333 215.777 23.48 214.991 23.48Z" fill="white"/>
<path d="M225.773 32.18C224.919 32.18 224.166 31.98 223.513 31.58C222.873 31.1667 222.373 30.58 222.013 29.82C221.653 29.06 221.473 28.16 221.473 27.12C221.473 26.08 221.653 25.1867 222.013 24.44C222.373 23.68 222.873 23.0933 223.513 22.68C224.153 22.2667 224.906 22.06 225.773 22.06C226.506 22.06 227.159 22.22 227.733 22.54C228.306 22.86 228.733 23.2933 229.013 23.84V17.9H231.033V32H229.053V30.3C228.773 30.8867 228.339 31.3467 227.753 31.68C227.179 32.0133 226.519 32.18 225.773 32.18ZM226.293 30.62C227.119 30.62 227.786 30.32 228.293 29.72C228.799 29.12 229.053 28.2533 229.053 27.12C229.053 25.9867 228.799 25.1267 228.293 24.54C227.786 23.94 227.119 23.64 226.293 23.64C225.453 23.64 224.779 23.94 224.273 24.54C223.766 25.1267 223.513 25.9867 223.513 27.12C223.513 28.2533 223.766 29.12 224.273 29.72C224.779 30.32 225.453 30.62 226.293 30.62Z" fill="white"/>
</g>
<defs>
<linearGradient id="paint0_linear_1807_12360" x1="76.5199" y1="11.5059" x2="114.141" y2="11.5059" gradientUnits="userSpaceOnUse">
<stop offset="0.0817" stop-color="#82FFE8"/>
<stop offset="0.9512" stop-color="#7C47FC"/>
</linearGradient>
<clipPath id="clip0_1807_12360">
<rect width="232" height="37" fill="white"/>
</clipPath>
</defs>
</svg>
