<svg width="162" height="37" viewBox="0 0 162 37" fill="none" xmlns="http://www.w3.org/2000/svg">
<g clip-path="url(#clip0_1556_12369)">
<path d="M5.28074 25.8269C3.0264 25.5245 2.84272 25.1117 2.84272 24.643C2.84272 24.2443 3.08242 23.5753 4.68691 23.5753C6.52197 23.5753 6.91659 24.3221 7.05329 24.8838L7.07786 24.9853H9.45986L9.44615 24.8405C9.37854 24.1235 8.84451 21.7855 4.80204 21.7855C1.58582 21.7855 0.444254 23.4276 0.444254 24.8339C0.444254 26.5455 1.74729 27.4795 4.6704 27.8621C7.16901 28.1645 7.37549 28.6843 7.37549 29.2359C7.37549 30.0456 6.63891 30.4565 5.18551 30.4565C3.66376 30.4565 2.73845 29.9311 2.43429 28.8943L2.40633 28.7987H0L0.0245667 28.9519C0.363618 31.0696 2.19617 32.2841 5.05225 32.2841C8.05285 32.2841 9.774 31.1104 9.774 29.0643C9.774 27.7036 9.22956 26.3694 5.28074 25.8269Z" fill="white"/>
<path d="M17.739 21.7855C15.8505 21.7855 14.7898 22.561 14.2017 23.3345C14.1958 22.8672 14.179 22.3944 14.1464 22.1662L14.1301 22.0525H11.7656L11.7689 22.1882C11.7878 22.9871 11.7878 23.8057 11.7878 24.6052V36.2286H14.205V30.9664C14.6015 31.416 15.0971 31.7688 15.6533 31.9973C16.2096 32.2259 16.8114 32.3239 17.4121 32.2839C20.2791 32.2839 22.4417 29.9577 22.4417 26.873C22.4417 23.9728 20.4198 21.7855 17.739 21.7855ZM19.9666 26.968C19.9666 28.4892 19.2021 30.2657 17.0478 30.2657C15.2318 30.2657 14.1475 29.0756 14.1475 27.0824C14.1475 24.9985 15.2187 23.8038 17.0863 23.8038C19.0765 23.8038 19.9666 25.3931 19.9666 26.968V26.968Z" fill="white"/>
<path d="M33.5163 29.4071V25.3101C33.5163 22.9716 31.9665 21.7855 28.9099 21.7855C25.0367 21.7855 24.4123 24.0423 24.323 25.0125L24.3099 25.1569H26.7135L26.7364 25.0522C26.8874 24.3557 27.1933 23.6133 28.9295 23.6133C30.8869 23.6133 31.1377 24.5508 31.1377 25.3675V25.7113H28.9868C25.4738 25.7113 23.7656 26.7959 23.7656 29.0265C23.7656 30.6479 24.9761 32.2841 27.6812 32.2841C29.3515 32.2841 30.5321 31.8417 31.1982 30.9679C31.2073 31.2854 31.2397 31.6019 31.2952 31.9147L31.3193 32.0172H33.6056L33.5932 31.8733C33.5736 31.6418 33.5163 30.4344 33.5163 29.4071ZM26.1444 28.9117C26.1444 27.8559 27.0058 27.4054 29.0252 27.4054C30.1674 27.4054 30.8152 27.4054 31.1376 27.4176V27.6348C31.1376 29.4692 30.1361 30.399 28.1611 30.399C26.8796 30.3991 26.1444 29.8572 26.1444 28.9118V28.9117Z" fill="white"/>
<path d="M43.5369 28.742C43.3311 29.2534 42.9645 29.6852 42.4918 29.9735C42.0191 30.2617 41.4653 30.391 40.9127 30.342C39.1505 30.342 38.0123 29.0403 38.0123 27.0254C38.0123 25.0221 39.1505 23.7277 40.9127 23.7277C41.4688 23.6792 42.0253 23.8171 42.4933 24.1192C42.9613 24.4213 43.3138 24.8704 43.4946 25.3947L43.5272 25.481H45.9059L45.8818 25.3284C45.678 24.0124 44.4055 21.7858 40.9315 21.7858C40.2232 21.7583 39.5167 21.8756 38.856 22.1304C38.1952 22.3852 37.5942 22.772 37.0902 23.2669C36.5863 23.7617 36.1901 24.3541 35.9263 25.0072C35.6625 25.6603 35.5367 26.3602 35.5567 27.0635C35.5567 30.2349 37.6593 32.2842 40.9128 32.2842C43.4848 32.2842 45.3564 30.9931 45.9177 28.8307L45.9607 28.6653H43.5726L43.5369 28.742Z" fill="white"/>
<path d="M52.5017 21.7855C49.3936 21.7855 47.2227 23.956 47.2227 27.0633C47.2227 29.662 48.8668 32.2839 52.5401 32.2839C55.9453 32.2839 57.1596 30.3061 57.5809 29.1275L57.6441 28.9507H55.2256L55.1877 29.019C54.6681 29.9472 53.8758 30.3611 52.6169 30.3611C51.8653 30.3914 51.132 30.1259 50.5766 29.6224C50.0212 29.1188 49.6885 28.418 49.6509 27.6723H57.7229V27.0062C57.7229 24.5981 56.3553 21.7855 52.5017 21.7855ZM52.4828 23.6516C54.6213 23.6516 55.1331 25.048 55.236 25.9781H49.6964C49.9113 24.497 50.9193 23.6516 52.4828 23.6516V23.6516Z" fill="white"/>
<path d="M62.121 17.4598H59.7031V32.017H62.121V17.4598Z" fill="white"/>
<path d="M66.0753 17.4983C65.8325 17.4983 65.5951 17.5697 65.3933 17.7036C65.1914 17.8375 65.034 18.0277 64.9411 18.2504C64.8482 18.473 64.8239 18.718 64.8712 18.9544C64.9186 19.1907 65.0355 19.4078 65.2072 19.5782C65.3788 19.7487 65.5976 19.8647 65.8357 19.9117C66.0738 19.9587 66.3206 19.9346 66.5449 19.8424C66.7692 19.7502 66.9609 19.594 67.0958 19.3936C67.2307 19.1932 67.3027 18.9577 67.3027 18.7167C67.3023 18.3937 67.1728 18.084 66.9427 17.8556C66.7126 17.6272 66.4007 17.4987 66.0753 17.4983V17.4983Z" fill="white"/>
<path d="M67.3005 22.0526H64.8828V32.0172H67.3005V22.0526Z" fill="white"/>
<path d="M81.8952 23.9564V22.0526H79.4186V19.0034H77.0016V22.0526H73.1987V21.0798C73.1987 19.706 73.5399 19.2874 74.6593 19.2874C74.9199 19.286 75.1799 19.3103 75.4357 19.3602L75.599 19.3976V17.4524L75.5002 17.4263C75.0982 17.3374 74.6868 17.2976 74.2752 17.3077C71.9903 17.3077 70.7823 18.5856 70.7823 21.0035V22.0526H68.9961V23.9564H70.7823V32.0171H73.1989V23.9564H77.0016V29.1411C77.0016 31.2518 77.8357 32.1127 79.8804 32.1127C80.4392 32.1348 80.998 32.0682 81.5357 31.9155L81.6269 31.8852V30.1019L81.4654 30.136C81.1702 30.1877 80.8708 30.2122 80.5711 30.2092C79.6874 30.2092 79.4185 29.8885 79.4185 28.836V23.9566L81.8952 23.9564Z" fill="white"/>
<path d="M108.263 16.9738C107.858 20.0179 106.625 21.8338 104.879 21.9562C104.287 21.9613 103.702 21.8299 103.17 21.5722C102.639 21.3146 102.175 20.9378 101.815 20.4716C103.105 19.5707 104.192 18.4134 105.007 17.0733C105.822 15.7332 106.348 14.2395 106.551 12.687C99.568 14.751 92.3453 15.91 85.0626 16.1353C85.9078 17.8739 87.1888 19.3678 88.7827 20.4738C85.9797 23.6675 84.4751 27.7827 84.5622 32.0174H87.5055C87.4359 28.7216 88.5174 25.5035 90.5664 22.9092C90.1259 25.9283 89.8491 28.9688 89.7373 32.0173H94.963C94.963 32.0173 94.0045 28.0841 95.565 28.0807C97.1252 28.0841 96.1668 32.0173 96.1668 32.0173H101.393C101.289 29.1373 101.035 26.2645 100.633 23.4105C101.214 23.8755 101.867 24.2447 102.567 24.5038C103.371 24.8019 104.229 24.927 105.086 24.8709C105.857 24.8135 106.609 24.5989 107.293 24.2406C107.977 23.8823 108.58 23.3879 109.063 22.7882C110.163 21.4849 110.875 19.6573 111.181 17.3561L108.263 16.9738Z" fill="white"/>
<path d="M96.0714 16.0531C106.452 14.3768 114.533 10.982 114.122 8.4706C113.71 5.95919 104.961 5.28222 94.5807 6.95853C84.2002 8.63485 76.1189 12.0297 76.5305 14.5411C76.9421 17.0525 85.6909 17.7294 96.0714 16.0531Z" fill="url(#paint0_linear_1556_12369)"/>
<path d="M105.523 6.37618C104.339 3.93804 102.311 2.00432 99.8086 0.928503C97.3064 -0.147316 94.4977 -0.293368 91.896 0.517048C89.2942 1.32746 87.0732 3.04021 85.639 5.3422C84.2047 7.64419 83.6529 10.3816 84.0846 13.0542C84.6321 16.416 107.075 12.9785 106.502 9.45699C106.327 8.3887 105.997 7.35108 105.523 6.37618V6.37618Z" fill="white"/>
<path d="M116.637 31.6211V16.7888H121.725C124.163 16.7888 126.044 17.427 127.37 18.7033C128.695 19.9657 129.358 21.796 129.358 24.1945C129.358 26.5929 128.695 28.4303 127.37 29.7066C126.044 30.983 124.163 31.6211 121.725 31.6211H116.637ZM118.39 30.1484H121.597C125.531 30.1484 127.498 28.1638 127.498 24.1945C127.498 20.2392 125.531 18.2615 121.597 18.2615H118.39V30.1484Z" fill="white"/>
<path d="M136.589 31.8105C135.577 31.8105 134.7 31.5931 133.959 31.1583C133.218 30.7235 132.641 30.1133 132.227 29.3279C131.828 28.5284 131.629 27.5887 131.629 26.5087C131.629 25.4287 131.828 24.496 132.227 23.7106C132.641 22.9111 133.218 22.294 133.959 21.8592C134.7 21.4244 135.577 21.207 136.589 21.207C137.587 21.207 138.456 21.4244 139.197 21.8592C139.953 22.294 140.53 22.9111 140.929 23.7106C141.343 24.496 141.549 25.4287 141.549 26.5087C141.549 27.5887 141.343 28.5284 140.929 29.3279C140.53 30.1133 139.953 30.7235 139.197 31.1583C138.456 31.5931 137.587 31.8105 136.589 31.8105ZM136.589 30.443C137.558 30.443 138.335 30.1063 138.919 29.4331C139.504 28.7458 139.796 27.771 139.796 26.5087C139.796 25.2324 139.504 24.2576 138.919 23.5843C138.335 22.9111 137.558 22.5745 136.589 22.5745C135.605 22.5745 134.821 22.9111 134.237 23.5843C133.667 24.2576 133.382 25.2324 133.382 26.5087C133.382 27.771 133.667 28.7458 134.237 29.4331C134.821 30.1063 135.605 30.443 136.589 30.443Z" fill="white"/>
<path d="M148.555 31.8105C147.514 31.8105 146.616 31.5931 145.861 31.1583C145.105 30.7094 144.521 30.0853 144.108 29.2858C143.709 28.4723 143.509 27.5256 143.509 26.4456C143.509 24.8186 143.958 23.5423 144.856 22.6165C145.754 21.6768 146.987 21.207 148.555 21.207C149.196 21.207 149.831 21.3192 150.458 21.5436C151.085 21.768 151.605 22.0836 152.019 22.4903L151.42 23.7316C151.007 23.3389 150.55 23.0513 150.052 22.869C149.567 22.6867 149.104 22.5955 148.662 22.5955C147.579 22.5955 146.745 22.9321 146.16 23.6054C145.576 24.2646 145.284 25.2183 145.284 26.4666C145.284 27.6869 145.576 28.6547 146.16 29.37C146.745 30.0713 147.579 30.4219 148.662 30.4219C149.104 30.4219 149.567 30.3307 150.052 30.1484C150.55 29.9661 151.007 29.6715 151.42 29.2648L152.019 30.5061C151.605 30.9128 151.078 31.2354 150.436 31.4739C149.809 31.6983 149.182 31.8105 148.555 31.8105Z" fill="white"/>
<path d="M157.554 31.8105C156.741 31.8105 155.972 31.6983 155.245 31.4739C154.518 31.2494 153.919 30.9339 153.449 30.5271L154.005 29.3279C154.518 29.7347 155.081 30.0362 155.694 30.2326C156.321 30.4149 156.955 30.5061 157.597 30.5061C158.409 30.5061 159.022 30.3588 159.435 30.0643C159.849 29.7697 160.055 29.37 160.055 28.8651C160.055 28.4723 159.92 28.1638 159.649 27.9393C159.378 27.7009 158.951 27.5186 158.366 27.3923L156.421 26.9716C154.653 26.5929 153.769 25.6952 153.769 24.2786C153.769 23.3529 154.14 22.6095 154.881 22.0485C155.637 21.4875 156.62 21.207 157.832 21.207C158.544 21.207 159.222 21.3192 159.863 21.5436C160.519 21.754 161.06 22.0695 161.488 22.4903L160.911 23.6895C160.497 23.3108 160.013 23.0233 159.457 22.8269C158.915 22.6165 158.373 22.5114 157.832 22.5114C157.034 22.5114 156.428 22.6656 156.014 22.9742C155.601 23.2828 155.394 23.6895 155.394 24.1945C155.394 24.9799 155.922 25.4848 156.977 25.7092L158.922 26.109C159.834 26.3053 160.526 26.6209 160.996 27.0557C161.467 27.4765 161.702 28.0516 161.702 28.7809C161.702 29.7206 161.324 30.464 160.569 31.011C159.813 31.544 158.808 31.8105 157.554 31.8105Z" fill="white"/>
</g>
<defs>
<linearGradient id="paint0_linear_1556_12369" x1="76.5153" y1="11.5059" x2="114.137" y2="11.5059" gradientUnits="userSpaceOnUse">
<stop offset="0.0817" stop-color="#82FFE8"/>
<stop offset="0.9512" stop-color="#7C47FC"/>
</linearGradient>
<clipPath id="clip0_1556_12369">
<rect width="161.704" height="37" fill="white"/>
</clipPath>
</defs>
</svg>
